PathFileType	4	(X/Y/Z)	Run_200 02
DataRate	CameraRate	NumFrames	NumMarkers	Units	OrigDataRate	OrigDataStartFrame	OrigNumFrames
120	120	7	41	mm	120	36	125
Frame#	Time	LASI			RASI			LPSI			RPSI			RTH1			RTH3			LTH1			LTH2			LTH3			RTB1			RTB2			RTB3			LTB1			LTB2			LTB3			RCAL			RTOE			RMT5			LCAL			LTOE			LMT5			LACR			RACR			CLAV			C7			RUA1			RUA2			RUA3			RLEL			RMEL			LUA1			LUA2			LUA3			LLEL			LMEL			RFAsuperior			RFAradius			RFAulna			LFAsuperior			LFAradius			LFAulna			
		X1	Y1	Z1	X2	Y2	Z2	X3	Y3	Z3	X4	Y4	Z4	X5	Y5	Z5	X6	Y6	Z6	X7	Y7	Z7	X8	Y8	Z8	X9	Y9	Z9	X10	Y10	Z10	X11	Y11	Z11	X12	Y12	Z12	X13	Y13	Z13	X14	Y14	Z14	X15	Y15	Z15	X16	Y16	Z16	X17	Y17	Z17	X18	Y18	Z18	X19	Y19	Z19	X20	Y20	Z20	X21	Y21	Z21	X22	Y22	Z22	X23	Y23	Z23	X24	Y24	Z24	X25	Y25	Z25	X26	Y26	Z26	X27	Y27	Z27	X28	Y28	Z28	X29	Y29	Z29	X30	Y30	Z30	X31	Y31	Z31	X32	Y32	Z32	X33	Y33	Z33	X34	Y34	Z34	X35	Y35	Z35	X36	Y36	Z36	X37	Y37	Z37	X38	Y38	Z38	X39	Y39	Z39	X40	Y40	Z40	X41	Y41	Z41	

36	1.066667	897.862675	1059.191661	-390.092408	898.754403	1037.593352	-160.412459	740.7725390000001	1091.965452	-320.765849	737.362484	1089.97816	-223.367474	804.91785	878.2351159999999	-102.559285	731.7609619999999	630.8223840000001	-158.537948	888.294859	872.141624	-443.797857	972.443253	786.536519	-419.819581	933.650723	658.6357860000001	-396.119517	689.2482639999999	398.747835	-235.041955	629.384046	360.942422	-172.821833	620.151328	295.759263	-239.301245	977.679018	438.390672	-327.183779	916.575813	379.715644	-401.62361	919.901669	279.617401	-333.085832	449.058407	205.558829	-242.997613	606.157793	76.17870499999999	-296.029965	584.113621	63.198576	-203.147233	784.215374	160.367487	-332.704934	989.048178	125.274313	-320.084974	969.714149	113.985587	-409.999777	835.926965	1524.71357	-446.027643	894.190758	1507.552472	-67.13789199999999	930.349675	1503.023601	-247.390388	808.083068	1563.41972	-261.550201	851.645348	1371.30389	-12.621797	777.185344	1365.680385	-10.867342	822.309017	1294.799268	22.155724	797.577196	1226.129925	39.670074	752.548799	1207.386123	-27.987334	740.362285	1433.716891	-506.330921	666.008313	1414.987676	-488.374159	704.457302	1354.014835	-527.936543	632.3745259999999	1304.947174	-547.465921	599.734478	1312.529275	-467.964971	905.845453	1198.464962	-19.277078	981.4017270000001	1184.142452	-113.732498	979.984807	1120.755128	-82.412811	721.09446	1213.21847	-522.4559850000001	809.942614	1173.529392	-438.117704	785.226555	1125.322957	-480.104176	
37	1.075	899.30664	1063.317146	-391.12273	900.485943	1041.098292	-162.520517	742.560128	1096.743323	-320.929788	739.547555	1094.849106	-223.858091	804.615248	883.222849	-102.479661	727.89364	636.313032	-157.00971	887.53531	876.221235	-444.158003	969.860327	788.841661	-419.373627	929.9907470000001	661.22993	-395.303481	682.918672	404.145036	-231.739872	621.317622	367.976107	-169.606375	612.3078400000001	301.543109	-235.66086	980.977831	441.174338	-324.361375	924.931887	378.113902	-399.229835	932.905745	279.12678	-329.227495	442.777613	215.428322	-238.982079	593.016694	78.83287900000001	-294.335494	570.184485	64.888892	-201.986659	804.649946	151.674855	-329.411451	1011.011907	129.606489	-313.313482	993.8441790000001	115.698277	-403.164843	834.751607	1528.917598	-445.673555	895.189601	1512.071939	-67.94704	930.436058	1506.972932	-247.851511	808.134608	1567.004417	-261.569698	853.308671	1376.220827	-12.489115	778.981017	1370.199906	-10.860707	824.5003380000001	1299.985755	23.314534	800.083921	1230.755176	40.16764	754.487521	1212.049783	-27.259216	738.521429	1438.742304	-505.184078	664.374675	1420.21535	-486.42191	702.017768	1359.27809	-526.793918	629.596243	1310.288162	-545.464395	598.031036	1317.755235	-465.563784	908.018908	1204.569073	-19.990623	982.6695580000001	1191.40424	-115.411457	982.46521	1127.93561	-84.19729	718.6831110000001	1218.578134	-521.472397	808.539779	1178.89414	-438.145832	783.309408	1130.624876	-479.710462	
38	1.083333	900.539224	1066.593548	-391.56824	902.075587	1044.355296	-163.524554	744.190485	1100.842069	-321.086236	741.405252	1099.186791	-224.266218	804.318615	887.7397	-102.390259	724.993749	641.006887	-155.706074	886.428797	879.810645	-444.647792	967.052586	790.247543	-418.880002	926.215194	663.062735	-395.088413	677.44037	408.844964	-228.516523	614.683416	374.271572	-166.433896	605.470249	306.776311	-232.149278	983.633387	443.561825	-321.713495	932.840174	376.613984	-396.829262	945.0783719999999	278.971103	-325.364068	436.918034	225.264567	-234.60604	580.096717	82.13079500000001	-292.548739	556.564425	67.29888099999999	-200.559483	824.435686	144.041897	-326.024174	1031.381086	134.518846	-306.115099	1016.715751	117.83667	-395.748614	833.77104	1532.448739	-445.37474	895.97727	1515.939752	-68.771412	930.531638	1510.280421	-248.275293	808.211686	1569.919311	-261.681779	854.733088	1380.507445	-12.507628	780.481104	1374.075684	-11.144452	826.25823	1304.547795	24.221117	802.181698	1234.74675	40.471657	756.2623139999999	1216.104884	-26.857112	736.999832	1442.92557	-504.205032	663.094517	1424.653622	-484.707673	699.994904	1363.603915	-525.6334869999999	627.215542	1314.706792	-543.48014	596.6769860000001	1322.140076	-463.197253	909.796975	1209.674353	-20.750597	983.694166	1197.476794	-116.917323	984.393877	1133.870158	-85.886557	716.7071999999999	1223.10128	-520.458161	807.4754799999999	1183.451537	-438.134744	781.866351	1135.109216	-479.352019	
39	1.091667	901.622784	1069.0119	-391.587792	903.544004	1047.273689	-163.61795	745.635544	1104.219195	-321.222061	743.0145199999999	1102.875874	-224.625367	804.066701	891.791247	-102.26823	723.131723	644.814286	-154.547879	885.233373	882.728674	-445.141958	964.421344	790.898148	-418.377458	922.70059	664.141924	-395.211105	672.916174	412.734738	-225.49642	609.523148	379.657165	-163.386552	599.585226	311.441522	-228.798592	985.795392	445.475675	-319.444505	939.9075340000001	375.204154	-394.527161	956.313121	279.049459	-321.700573	431.398549	234.935663	-229.988674	567.419219	85.941727	-290.658279	543.270054	70.31528299999999	-198.945717	843.252283	137.453519	-322.549335	1049.940261	139.813824	-298.867484	1038.001113	120.137646	-388.090594	832.959284	1535.268666	-445.133559	896.6083620000001	1519.071957	-69.601641	930.6564069999999	1512.908434	-248.668752	808.300116	1572.169705	-261.848285	855.929962	1384.081754	-12.676276	781.688802	1377.280873	-11.68744	827.5918380000001	1308.422842	24.860326	803.84195	1238.063493	40.599469	757.806426	1219.45608	-26.721245	735.753953	1446.255389	-503.442022	662.112802	1428.234723	-483.159912	698.369967	1367.014231	-524.5066849999999	625.2367410000001	1318.195261	-541.561653	595.672762	1325.671588	-460.853029	911.177424	1213.734709	-21.491666	984.505172	1202.316104	-118.197763	985.791608	1138.524588	-87.417962	715.148651	1226.782935	-519.443117	806.749062	1187.187681	-438.101747	780.882381	1138.757535	-479.066484	
40	1.1	902.642615	1070.607249	-391.457928	904.815092	1049.686532	-163.357392	746.885004	1106.825293	-321.362706	744.401669	1105.815723	-224.963331	803.9146	895.290718	-102.157672	722.361315	647.711639	-153.393178	884.2235439999999	884.7650180000001	-445.576202	962.3254920000001	790.908366	-417.992935	919.749148	664.5088459999999	-395.38429	669.384594	415.757719	-222.707996	605.514336	384.170833	-160.48242	594.32392	315.634279	-225.580856	987.66964	446.854221	-317.667216	945.793862	373.835293	-392.358469	966.527602	279.232371	-318.431128	426.139131	244.327998	-225.246631	555.10545	90.15388299999999	-288.628048	530.2717720000001	73.747812	-197.256599	860.764165	131.866375	-319.018952	1066.515753	145.294021	-291.963348	1057.37816	122.420736	-380.583125	832.316415	1537.34797	-444.964614	897.148828	1521.393589	-70.409892	930.834978	1514.826287	-249.043232	808.40581	1573.759465	-262.067926	856.888108	1386.865634	-12.97251	782.60878	1379.786231	-12.458467	828.5370339999999	1311.528067	25.220641	805.046865	1240.658343	40.563405	758.982071	1222.039762	-26.775026	734.7438069999999	1448.733487	-502.871931	661.371429	1430.881005	-481.692789	697.101693	1369.526473	-523.445514	623.651528	1320.739586	-539.753732	594.997972	1328.286341	-458.600985	912.164865	1216.713081	-22.148451	985.099602	1205.83903	-119.247941	986.685281	1141.874717	-88.730481	713.99524	1229.605276	-518.47389	806.361527	1190.067595	-438.060864	780.333393	1141.54642	-478.862561	
41	1.108333	903.6184950000001	1071.450966	-391.323749	905.804177	1051.45197	-163.23051	747.932228	1108.589364	-321.584091	745.527587	1107.924467	-225.299875	803.928255	898.037697	-102.167018	722.734405	649.690162	-152.099375	883.601934	885.820652	-446.036243	960.955314	790.315685	-417.885815	917.497172	664.222168	-395.41333	666.8268389999999	417.88289	-220.065058	602.348163	387.922268	-157.695497	589.491886	319.411581	-222.446521	989.424498	447.683672	-316.307621	950.386042	372.44729	-390.264961	975.6176380000001	279.390167	-315.627557	421.098481	253.384364	-220.509863	543.327657	94.718416	-286.431293	517.51084	77.445519	-195.579411	876.5962479999999	127.208807	-315.4962	1080.94878	150.723482	-285.677125	1074.526289	124.63501	-373.556942	831.875886	1538.661996	-444.899332	897.658009	1522.849714	-71.15974900000001	931.078737	1516.014566	-249.421066	808.55771	1574.690385	-262.365986	857.592955	1388.794269	-13.359017	783.252568	1381.560039	-13.415964	829.138369	1313.771939	25.294165	805.79872	1242.478079	40.365733	759.70854	1223.815125	-26.9772	733.946506	1450.339372	-502.425798	660.830605	1432.525162	-480.248827	696.140635	1371.143838	-522.4751230000001	622.442347	1322.318533	-538.086436	594.623232	1329.888757	-456.565315	912.764338	1218.573574	-22.705126	985.449087	1207.952856	-120.105342	987.100344	1143.894181	-89.793693	713.244832	1231.531655	-517.602214	806.3171160000001	1192.049488	-438.040767	780.193321	1143.442244	-478.72354	
42	1.116667	904.499906	1071.629842	-391.152444	906.4942129999999	1052.521689	-163.393076	748.7606479999999	1109.424869	-321.966775	746.334088	1109.136022	-225.664885	804.182156	899.831906	-102.369973	724.294686	650.676285	-150.59984	883.439265	885.847853	-446.630257	960.267849	789.08126	-418.159786	915.882445	663.3250870000001	-395.243293	665.204775	419.094298	-217.4305	599.8955979999999	391.00624	-154.990186	585.137209	322.748066	-219.358765	991.112986	448.003836	-315.090627	953.8580009999999	370.99965	-388.137979	983.442353	279.41433	-313.164576	416.320464	262.120891	-215.929606	532.2166580000001	99.612728	-284.084507	504.932422	81.357679	-193.954971	890.354631	123.377133	-312.041581	1093.092199	155.752322	-280.116255	1089.13869	126.799838	-367.222718	831.682306	1539.189669	-444.973591	898.169294	1523.414434	-71.82472	931.3818690000001	1516.462208	-249.826642	808.797345	1574.977401	-262.765767	858.049919	1389.817581	-13.80258	783.644105	1382.5669	-14.484966	829.435244	1315.070903	25.090889	806.116659	1243.469685	40.007372	760.013393	1224.756832	-27.331493	733.357569	1451.027279	-502.041065	660.477587	1433.130888	-478.842748	695.448093	1371.850954	-521.629809	621.596818	1322.905339	-536.57789	594.530638	1330.409315	-454.82531	912.976463	1219.281044	-23.200483	985.5268139999999	1208.608132	-120.814025	987.051182	1144.552787	-90.613906	712.901163	1232.513138	-516.868137	806.622071	1193.104419	-438.080167	780.444967	1144.409359	-478.630976	
